<svg xmlns="http://www.w3.org/2000/svg" version="1.1" xmlns:xlink="http://www.w3.org/1999/xlink" xmlns:svgjs="http://svgjs.com/svgjs" width="600" height="800" preserveAspectRatio="none" viewBox="0 0 600 800"><g mask="url(&quot;#SvgjsMask1070&quot;)" fill="none"><rect width="600" height="800" x="0" y="0" fill="rgba(235, 235, 235, 1)"></rect><path d="M0,325.213C66.883,332.037,135.885,334.748,196.671,306.026C261.838,275.234,321.145,225.887,349.995,159.837C378.666,94.198,376.758,16.709,352.479,-50.679C330.27,-112.321,275.504,-154.111,222.841,-193.093C178.948,-225.583,123.57,-230.695,75.156,-255.957C10.995,-289.436,-36.249,-379.227,-107.275,-365.346C-176.327,-351.851,-179.593,-248.675,-227.198,-196.868C-276.943,-142.732,-370.399,-126.749,-391.292,-56.259C-412.165,14.164,-371.308,89.916,-330.252,150.821C-292.835,206.328,-231.66,237.104,-172.465,268.362C-117.831,297.212,-61.464,318.942,0,325.213" fill="#cccccc"></path><path d="M600 1068.585C650.352 1058.281 699.177 1049.023 744.677 1025.121 793.836 999.296 840.187 969.33 873.5029999999999 924.905 912.684 872.66 961.956 813.921 951.395 749.477 940.831 685.011 861.9739999999999 659.341 821.572 608.0070000000001 778.356 553.0989999999999 771.635 462.766 706.281 438.041 641.353 413.477 573.921 465.419 508.891 489.712 448.652 512.2149999999999 373.369 519.773 340.13 574.821 307.003 629.685 349.714 699.346 343.781 763.1610000000001 338.278 822.355 294.798 875.689 306.745 933.925 319.785 997.49 352.53700000000003 1066.224 411.506 1093.3020000000001 470.284 1120.292 536.634 1081.5520000000001 600 1068.585" fill="#ffffff"></path></g><defs><mask id="SvgjsMask1070"><rect width="600" height="800" fill="#ffffff"></rect></mask></defs></svg>